<mxfile host="app.diagrams.net" modified="2024-03-13T16:29:02.940Z" agent="Mozilla/5.0 (X11; Linux x86_64; rv:123.0) Gecko/20100101 Firefox/123.0" etag="tIj1fAxYV5Yu__887iHr" version="24.0.5" type="device">
  <diagram name="Page-1" id="Tr0XNQSlE0OQ8VXsaYxj">
    <mxGraphModel dx="1193" dy="619" grid="1" gridSize="10" guides="1" tooltips="1" connect="1" arrows="1" fold="1" page="1" pageScale="1" pageWidth="850" pageHeight="1100" math="0" shadow="0">
      <root>
        <mxCell id="0" />
        <mxCell id="1" parent="0" />
        <mxCell id="5YTVY3-jpFA6XS3-Fvsi-82" value="&lt;div&gt;Blog&lt;/div&gt;" style="shape=folder;fontStyle=1;tabWidth=110;tabHeight=30;tabPosition=left;html=1;boundedLbl=1;labelInHeader=1;container=1;collapsible=0;whiteSpace=wrap;" vertex="1" parent="1">
          <mxGeometry x="100" y="1260" width="690" height="310" as="geometry" />
        </mxCell>
        <mxCell id="5YTVY3-jpFA6XS3-Fvsi-83" value="" style="html=1;strokeColor=none;resizeWidth=1;resizeHeight=1;fillColor=none;part=1;connectable=0;allowArrows=0;deletable=0;whiteSpace=wrap;" vertex="1" parent="5YTVY3-jpFA6XS3-Fvsi-82">
          <mxGeometry width="690" height="217" relative="1" as="geometry">
            <mxPoint y="30" as="offset" />
          </mxGeometry>
        </mxCell>
        <mxCell id="5YTVY3-jpFA6XS3-Fvsi-80" value="&lt;div&gt;Blog&lt;/div&gt;" style="shape=folder;fontStyle=1;tabWidth=110;tabHeight=30;tabPosition=left;html=1;boundedLbl=1;labelInHeader=1;container=1;collapsible=0;whiteSpace=wrap;" vertex="1" parent="1">
          <mxGeometry x="90" y="660" width="690" height="190" as="geometry" />
        </mxCell>
        <mxCell id="5YTVY3-jpFA6XS3-Fvsi-81" value="" style="html=1;strokeColor=none;resizeWidth=1;resizeHeight=1;fillColor=none;part=1;connectable=0;allowArrows=0;deletable=0;whiteSpace=wrap;" vertex="1" parent="5YTVY3-jpFA6XS3-Fvsi-80">
          <mxGeometry width="690" height="133" relative="1" as="geometry">
            <mxPoint y="30" as="offset" />
          </mxGeometry>
        </mxCell>
        <mxCell id="5YTVY3-jpFA6XS3-Fvsi-78" value="&lt;div&gt;Blog&lt;/div&gt;" style="shape=folder;fontStyle=1;tabWidth=110;tabHeight=30;tabPosition=left;html=1;boundedLbl=1;labelInHeader=1;container=1;collapsible=0;whiteSpace=wrap;" vertex="1" parent="1">
          <mxGeometry x="90" y="885" width="690" height="310" as="geometry" />
        </mxCell>
        <mxCell id="5YTVY3-jpFA6XS3-Fvsi-79" value="" style="html=1;strokeColor=none;resizeWidth=1;resizeHeight=1;fillColor=none;part=1;connectable=0;allowArrows=0;deletable=0;whiteSpace=wrap;" vertex="1" parent="5YTVY3-jpFA6XS3-Fvsi-78">
          <mxGeometry width="690" height="217" relative="1" as="geometry">
            <mxPoint y="30" as="offset" />
          </mxGeometry>
        </mxCell>
        <mxCell id="5YTVY3-jpFA6XS3-Fvsi-1" value="Article" style="swimlane;fontStyle=0;childLayout=stackLayout;horizontal=1;startSize=30;horizontalStack=0;resizeParent=1;resizeParentMax=0;resizeLast=0;collapsible=1;marginBottom=0;whiteSpace=wrap;html=1;" vertex="1" parent="1">
          <mxGeometry x="200" y="450" width="140" height="60" as="geometry" />
        </mxCell>
        <mxCell id="5YTVY3-jpFA6XS3-Fvsi-14" value="article_id" style="text;strokeColor=none;fillColor=none;align=left;verticalAlign=middle;spacingLeft=4;spacingRight=4;overflow=hidden;points=[[0,0.5],[1,0.5]];portConstraint=eastwest;rotatable=0;whiteSpace=wrap;html=1;" vertex="1" parent="5YTVY3-jpFA6XS3-Fvsi-1">
          <mxGeometry y="30" width="140" height="30" as="geometry" />
        </mxCell>
        <mxCell id="5YTVY3-jpFA6XS3-Fvsi-12" value="" style="endArrow=classic;html=1;rounded=0;exitX=1;exitY=0.5;exitDx=0;exitDy=0;" edge="1" parent="1">
          <mxGeometry width="50" height="50" relative="1" as="geometry">
            <mxPoint x="339" y="480" as="sourcePoint" />
            <mxPoint x="519" y="494.4000000000001" as="targetPoint" />
          </mxGeometry>
        </mxCell>
        <mxCell id="5YTVY3-jpFA6XS3-Fvsi-13" value="&lt;div&gt;0..1&lt;/div&gt;" style="edgeLabel;html=1;align=center;verticalAlign=middle;resizable=0;points=[];" vertex="1" connectable="0" parent="5YTVY3-jpFA6XS3-Fvsi-12">
          <mxGeometry x="0.4127" y="-2" relative="1" as="geometry">
            <mxPoint x="19" as="offset" />
          </mxGeometry>
        </mxCell>
        <mxCell id="5YTVY3-jpFA6XS3-Fvsi-15" value="Article" style="swimlane;fontStyle=0;childLayout=stackLayout;horizontal=1;startSize=30;horizontalStack=0;resizeParent=1;resizeParentMax=0;resizeLast=0;collapsible=1;marginBottom=0;whiteSpace=wrap;html=1;" vertex="1" parent="1">
          <mxGeometry x="195" y="130" width="140" height="60" as="geometry" />
        </mxCell>
        <mxCell id="5YTVY3-jpFA6XS3-Fvsi-16" value="article_id" style="text;strokeColor=none;fillColor=none;align=left;verticalAlign=middle;spacingLeft=4;spacingRight=4;overflow=hidden;points=[[0,0.5],[1,0.5]];portConstraint=eastwest;rotatable=0;whiteSpace=wrap;html=1;" vertex="1" parent="5YTVY3-jpFA6XS3-Fvsi-15">
          <mxGeometry y="30" width="140" height="30" as="geometry" />
        </mxCell>
        <mxCell id="5YTVY3-jpFA6XS3-Fvsi-17" value="Statut" style="swimlane;fontStyle=0;childLayout=stackLayout;horizontal=1;startSize=30;horizontalStack=0;resizeParent=1;resizeParentMax=0;resizeLast=0;collapsible=1;marginBottom=0;whiteSpace=wrap;html=1;" vertex="1" parent="1">
          <mxGeometry x="515" y="120" width="140" height="120" as="geometry" />
        </mxCell>
        <mxCell id="5YTVY3-jpFA6XS3-Fvsi-18" value="&lt;div&gt;BROUILLON&lt;/div&gt;" style="text;strokeColor=none;fillColor=none;align=left;verticalAlign=middle;spacingLeft=4;spacingRight=4;overflow=hidden;points=[[0,0.5],[1,0.5]];portConstraint=eastwest;rotatable=0;whiteSpace=wrap;html=1;" vertex="1" parent="5YTVY3-jpFA6XS3-Fvsi-17">
          <mxGeometry y="30" width="140" height="30" as="geometry" />
        </mxCell>
        <mxCell id="5YTVY3-jpFA6XS3-Fvsi-19" value="PUBLIÃ‰" style="text;strokeColor=none;fillColor=none;align=left;verticalAlign=middle;spacingLeft=4;spacingRight=4;overflow=hidden;points=[[0,0.5],[1,0.5]];portConstraint=eastwest;rotatable=0;whiteSpace=wrap;html=1;" vertex="1" parent="5YTVY3-jpFA6XS3-Fvsi-17">
          <mxGeometry y="60" width="140" height="30" as="geometry" />
        </mxCell>
        <mxCell id="5YTVY3-jpFA6XS3-Fvsi-20" value="EN ATTENTE" style="text;strokeColor=none;fillColor=none;align=left;verticalAlign=middle;spacingLeft=4;spacingRight=4;overflow=hidden;points=[[0,0.5],[1,0.5]];portConstraint=eastwest;rotatable=0;whiteSpace=wrap;html=1;" vertex="1" parent="5YTVY3-jpFA6XS3-Fvsi-17">
          <mxGeometry y="90" width="140" height="30" as="geometry" />
        </mxCell>
        <mxCell id="5YTVY3-jpFA6XS3-Fvsi-21" value="" style="endArrow=classic;html=1;rounded=0;exitX=1;exitY=0.5;exitDx=0;exitDy=0;" edge="1" parent="1">
          <mxGeometry width="50" height="50" relative="1" as="geometry">
            <mxPoint x="334" y="160" as="sourcePoint" />
            <mxPoint x="514" y="174.4000000000001" as="targetPoint" />
          </mxGeometry>
        </mxCell>
        <mxCell id="5YTVY3-jpFA6XS3-Fvsi-22" value="&lt;div&gt;1..1&lt;/div&gt;" style="edgeLabel;html=1;align=center;verticalAlign=middle;resizable=0;points=[];" vertex="1" connectable="0" parent="5YTVY3-jpFA6XS3-Fvsi-21">
          <mxGeometry x="0.4127" y="-2" relative="1" as="geometry">
            <mxPoint x="19" as="offset" />
          </mxGeometry>
        </mxCell>
        <mxCell id="5YTVY3-jpFA6XS3-Fvsi-23" value="&lt;div&gt;&lt;font style=&quot;font-size: 36px;&quot;&gt;Exercice 1&lt;/font&gt;&lt;/div&gt;" style="text;html=1;align=center;verticalAlign=middle;resizable=0;points=[];autosize=1;strokeColor=none;fillColor=none;" vertex="1" parent="1">
          <mxGeometry x="330" y="25" width="190" height="60" as="geometry" />
        </mxCell>
        <mxCell id="5YTVY3-jpFA6XS3-Fvsi-25" value="&lt;div&gt;&lt;font style=&quot;font-size: 36px;&quot;&gt;Exercice 2&lt;/font&gt;&lt;/div&gt;" style="text;html=1;align=center;verticalAlign=middle;resizable=0;points=[];autosize=1;strokeColor=none;fillColor=none;" vertex="1" parent="1">
          <mxGeometry x="330" y="330" width="190" height="60" as="geometry" />
        </mxCell>
        <mxCell id="5YTVY3-jpFA6XS3-Fvsi-26" value="Article" style="swimlane;fontStyle=0;childLayout=stackLayout;horizontal=1;startSize=30;horizontalStack=0;resizeParent=1;resizeParentMax=0;resizeLast=0;collapsible=1;marginBottom=0;whiteSpace=wrap;html=1;" vertex="1" parent="1">
          <mxGeometry x="195" y="720" width="140" height="60" as="geometry" />
        </mxCell>
        <mxCell id="5YTVY3-jpFA6XS3-Fvsi-27" value="article_id" style="text;strokeColor=none;fillColor=none;align=left;verticalAlign=middle;spacingLeft=4;spacingRight=4;overflow=hidden;points=[[0,0.5],[1,0.5]];portConstraint=eastwest;rotatable=0;whiteSpace=wrap;html=1;" vertex="1" parent="5YTVY3-jpFA6XS3-Fvsi-26">
          <mxGeometry y="30" width="140" height="30" as="geometry" />
        </mxCell>
        <mxCell id="5YTVY3-jpFA6XS3-Fvsi-32" value="" style="endArrow=classic;html=1;rounded=0;exitX=1;exitY=0.5;exitDx=0;exitDy=0;" edge="1" parent="1">
          <mxGeometry width="50" height="50" relative="1" as="geometry">
            <mxPoint x="334" y="750" as="sourcePoint" />
            <mxPoint x="514" y="764.4000000000001" as="targetPoint" />
          </mxGeometry>
        </mxCell>
        <mxCell id="5YTVY3-jpFA6XS3-Fvsi-33" value="&lt;div&gt;0..1&lt;/div&gt;" style="edgeLabel;html=1;align=center;verticalAlign=middle;resizable=0;points=[];" vertex="1" connectable="0" parent="5YTVY3-jpFA6XS3-Fvsi-32">
          <mxGeometry x="0.4127" y="-2" relative="1" as="geometry">
            <mxPoint x="19" as="offset" />
          </mxGeometry>
        </mxCell>
        <mxCell id="5YTVY3-jpFA6XS3-Fvsi-34" value="&lt;div&gt;&lt;font style=&quot;font-size: 36px;&quot;&gt;Exercice 2&lt;/font&gt;&lt;/div&gt;" style="text;html=1;align=center;verticalAlign=middle;resizable=0;points=[];autosize=1;strokeColor=none;fillColor=none;" vertex="1" parent="1">
          <mxGeometry x="325" y="600" width="190" height="60" as="geometry" />
        </mxCell>
        <mxCell id="5YTVY3-jpFA6XS3-Fvsi-46" style="edgeStyle=orthogonalEdgeStyle;rounded=0;orthogonalLoop=1;jettySize=auto;html=1;" edge="1" parent="1" source="5YTVY3-jpFA6XS3-Fvsi-35" target="5YTVY3-jpFA6XS3-Fvsi-44">
          <mxGeometry relative="1" as="geometry" />
        </mxCell>
        <mxCell id="5YTVY3-jpFA6XS3-Fvsi-47" value="&lt;div&gt;1..1&lt;/div&gt;" style="edgeLabel;html=1;align=center;verticalAlign=middle;resizable=0;points=[];" vertex="1" connectable="0" parent="5YTVY3-jpFA6XS3-Fvsi-46">
          <mxGeometry x="0.5429" y="-1" relative="1" as="geometry">
            <mxPoint as="offset" />
          </mxGeometry>
        </mxCell>
        <mxCell id="5YTVY3-jpFA6XS3-Fvsi-35" value="Article" style="swimlane;fontStyle=0;childLayout=stackLayout;horizontal=1;startSize=30;horizontalStack=0;resizeParent=1;resizeParentMax=0;resizeLast=0;collapsible=1;marginBottom=0;whiteSpace=wrap;html=1;" vertex="1" parent="1">
          <mxGeometry x="200" y="980" width="140" height="120" as="geometry" />
        </mxCell>
        <mxCell id="5YTVY3-jpFA6XS3-Fvsi-36" value="article_id" style="text;strokeColor=none;fillColor=none;align=left;verticalAlign=middle;spacingLeft=4;spacingRight=4;overflow=hidden;points=[[0,0.5],[1,0.5]];portConstraint=eastwest;rotatable=0;whiteSpace=wrap;html=1;" vertex="1" parent="5YTVY3-jpFA6XS3-Fvsi-35">
          <mxGeometry y="30" width="140" height="30" as="geometry" />
        </mxCell>
        <mxCell id="5YTVY3-jpFA6XS3-Fvsi-48" value="titre" style="text;strokeColor=none;fillColor=none;align=left;verticalAlign=middle;spacingLeft=4;spacingRight=4;overflow=hidden;points=[[0,0.5],[1,0.5]];portConstraint=eastwest;rotatable=0;whiteSpace=wrap;html=1;" vertex="1" parent="5YTVY3-jpFA6XS3-Fvsi-35">
          <mxGeometry y="60" width="140" height="30" as="geometry" />
        </mxCell>
        <mxCell id="5YTVY3-jpFA6XS3-Fvsi-49" value="corps" style="text;strokeColor=none;fillColor=none;align=left;verticalAlign=middle;spacingLeft=4;spacingRight=4;overflow=hidden;points=[[0,0.5],[1,0.5]];portConstraint=eastwest;rotatable=0;whiteSpace=wrap;html=1;" vertex="1" parent="5YTVY3-jpFA6XS3-Fvsi-35">
          <mxGeometry y="90" width="140" height="30" as="geometry" />
        </mxCell>
        <mxCell id="5YTVY3-jpFA6XS3-Fvsi-37" value="&lt;div&gt;&amp;lt;&amp;lt;Ã©numÃ©ration&amp;gt;&amp;gt;&lt;/div&gt;&lt;div&gt;Statut&lt;br&gt;&lt;/div&gt;" style="swimlane;fontStyle=0;childLayout=stackLayout;horizontal=1;startSize=30;horizontalStack=0;resizeParent=1;resizeParentMax=0;resizeLast=0;collapsible=1;marginBottom=0;whiteSpace=wrap;html=1;" vertex="1" parent="1">
          <mxGeometry x="520" y="960" width="140" height="120" as="geometry" />
        </mxCell>
        <mxCell id="5YTVY3-jpFA6XS3-Fvsi-38" value="&lt;div&gt;BROUILLON&lt;/div&gt;" style="text;strokeColor=none;fillColor=none;align=left;verticalAlign=middle;spacingLeft=4;spacingRight=4;overflow=hidden;points=[[0,0.5],[1,0.5]];portConstraint=eastwest;rotatable=0;whiteSpace=wrap;html=1;" vertex="1" parent="5YTVY3-jpFA6XS3-Fvsi-37">
          <mxGeometry y="30" width="140" height="30" as="geometry" />
        </mxCell>
        <mxCell id="5YTVY3-jpFA6XS3-Fvsi-39" value="PUBLIÃ‰" style="text;strokeColor=none;fillColor=none;align=left;verticalAlign=middle;spacingLeft=4;spacingRight=4;overflow=hidden;points=[[0,0.5],[1,0.5]];portConstraint=eastwest;rotatable=0;whiteSpace=wrap;html=1;" vertex="1" parent="5YTVY3-jpFA6XS3-Fvsi-37">
          <mxGeometry y="60" width="140" height="30" as="geometry" />
        </mxCell>
        <mxCell id="5YTVY3-jpFA6XS3-Fvsi-40" value="EN ATTENTE" style="text;strokeColor=none;fillColor=none;align=left;verticalAlign=middle;spacingLeft=4;spacingRight=4;overflow=hidden;points=[[0,0.5],[1,0.5]];portConstraint=eastwest;rotatable=0;whiteSpace=wrap;html=1;" vertex="1" parent="5YTVY3-jpFA6XS3-Fvsi-37">
          <mxGeometry y="90" width="140" height="30" as="geometry" />
        </mxCell>
        <mxCell id="5YTVY3-jpFA6XS3-Fvsi-41" value="" style="endArrow=classic;html=1;rounded=0;exitX=1;exitY=0.5;exitDx=0;exitDy=0;" edge="1" parent="1">
          <mxGeometry width="50" height="50" relative="1" as="geometry">
            <mxPoint x="339" y="1000" as="sourcePoint" />
            <mxPoint x="519" y="1014.4000000000001" as="targetPoint" />
          </mxGeometry>
        </mxCell>
        <mxCell id="5YTVY3-jpFA6XS3-Fvsi-42" value="&lt;div&gt;0..1&lt;/div&gt;" style="edgeLabel;html=1;align=center;verticalAlign=middle;resizable=0;points=[];" vertex="1" connectable="0" parent="5YTVY3-jpFA6XS3-Fvsi-41">
          <mxGeometry x="0.4127" y="-2" relative="1" as="geometry">
            <mxPoint x="19" as="offset" />
          </mxGeometry>
        </mxCell>
        <mxCell id="5YTVY3-jpFA6XS3-Fvsi-43" value="&lt;div&gt;&lt;font style=&quot;font-size: 36px;&quot;&gt;Exercice 3&lt;br&gt;&lt;/font&gt;&lt;/div&gt;" style="text;html=1;align=center;verticalAlign=middle;resizable=0;points=[];autosize=1;strokeColor=none;fillColor=none;" vertex="1" parent="1">
          <mxGeometry x="330" y="850" width="190" height="60" as="geometry" />
        </mxCell>
        <mxCell id="5YTVY3-jpFA6XS3-Fvsi-44" value="&lt;div&gt;Autheur&lt;/div&gt;" style="swimlane;fontStyle=0;childLayout=stackLayout;horizontal=1;startSize=30;horizontalStack=0;resizeParent=1;resizeParentMax=0;resizeLast=0;collapsible=1;marginBottom=0;whiteSpace=wrap;html=1;" vertex="1" parent="1">
          <mxGeometry x="195" y="1130" width="140" height="60" as="geometry" />
        </mxCell>
        <mxCell id="5YTVY3-jpFA6XS3-Fvsi-45" value="nom" style="text;strokeColor=none;fillColor=none;align=left;verticalAlign=middle;spacingLeft=4;spacingRight=4;overflow=hidden;points=[[0,0.5],[1,0.5]];portConstraint=eastwest;rotatable=0;whiteSpace=wrap;html=1;" vertex="1" parent="5YTVY3-jpFA6XS3-Fvsi-44">
          <mxGeometry y="30" width="140" height="30" as="geometry" />
        </mxCell>
        <mxCell id="5YTVY3-jpFA6XS3-Fvsi-50" value="&lt;div&gt;&amp;lt;&amp;lt;Ã©numÃ©ration&amp;gt;&amp;gt;&lt;/div&gt;&lt;div&gt;Statut&lt;br&gt;&lt;/div&gt;" style="swimlane;fontStyle=0;childLayout=stackLayout;horizontal=1;startSize=30;horizontalStack=0;resizeParent=1;resizeParentMax=0;resizeLast=0;collapsible=1;marginBottom=0;whiteSpace=wrap;html=1;" vertex="1" parent="1">
          <mxGeometry x="515" y="700" width="140" height="120" as="geometry" />
        </mxCell>
        <mxCell id="5YTVY3-jpFA6XS3-Fvsi-51" value="&lt;div&gt;BROUILLON&lt;/div&gt;" style="text;strokeColor=none;fillColor=none;align=left;verticalAlign=middle;spacingLeft=4;spacingRight=4;overflow=hidden;points=[[0,0.5],[1,0.5]];portConstraint=eastwest;rotatable=0;whiteSpace=wrap;html=1;" vertex="1" parent="5YTVY3-jpFA6XS3-Fvsi-50">
          <mxGeometry y="30" width="140" height="30" as="geometry" />
        </mxCell>
        <mxCell id="5YTVY3-jpFA6XS3-Fvsi-52" value="PUBLIÃ‰" style="text;strokeColor=none;fillColor=none;align=left;verticalAlign=middle;spacingLeft=4;spacingRight=4;overflow=hidden;points=[[0,0.5],[1,0.5]];portConstraint=eastwest;rotatable=0;whiteSpace=wrap;html=1;" vertex="1" parent="5YTVY3-jpFA6XS3-Fvsi-50">
          <mxGeometry y="60" width="140" height="30" as="geometry" />
        </mxCell>
        <mxCell id="5YTVY3-jpFA6XS3-Fvsi-53" value="EN ATTENTE" style="text;strokeColor=none;fillColor=none;align=left;verticalAlign=middle;spacingLeft=4;spacingRight=4;overflow=hidden;points=[[0,0.5],[1,0.5]];portConstraint=eastwest;rotatable=0;whiteSpace=wrap;html=1;" vertex="1" parent="5YTVY3-jpFA6XS3-Fvsi-50">
          <mxGeometry y="90" width="140" height="30" as="geometry" />
        </mxCell>
        <mxCell id="5YTVY3-jpFA6XS3-Fvsi-54" value="&lt;div&gt;&amp;lt;&amp;lt;Ã©numÃ©ration&amp;gt;&amp;gt;&lt;/div&gt;&lt;div&gt;Statut&lt;br&gt;&lt;/div&gt;" style="swimlane;fontStyle=0;childLayout=stackLayout;horizontal=1;startSize=30;horizontalStack=0;resizeParent=1;resizeParentMax=0;resizeLast=0;collapsible=1;marginBottom=0;whiteSpace=wrap;html=1;" vertex="1" parent="1">
          <mxGeometry x="520" y="430" width="140" height="120" as="geometry" />
        </mxCell>
        <mxCell id="5YTVY3-jpFA6XS3-Fvsi-55" value="&lt;div&gt;BROUILLON&lt;/div&gt;" style="text;strokeColor=none;fillColor=none;align=left;verticalAlign=middle;spacingLeft=4;spacingRight=4;overflow=hidden;points=[[0,0.5],[1,0.5]];portConstraint=eastwest;rotatable=0;whiteSpace=wrap;html=1;" vertex="1" parent="5YTVY3-jpFA6XS3-Fvsi-54">
          <mxGeometry y="30" width="140" height="30" as="geometry" />
        </mxCell>
        <mxCell id="5YTVY3-jpFA6XS3-Fvsi-56" value="PUBLIÃ‰" style="text;strokeColor=none;fillColor=none;align=left;verticalAlign=middle;spacingLeft=4;spacingRight=4;overflow=hidden;points=[[0,0.5],[1,0.5]];portConstraint=eastwest;rotatable=0;whiteSpace=wrap;html=1;" vertex="1" parent="5YTVY3-jpFA6XS3-Fvsi-54">
          <mxGeometry y="60" width="140" height="30" as="geometry" />
        </mxCell>
        <mxCell id="5YTVY3-jpFA6XS3-Fvsi-57" value="EN ATTENTE" style="text;strokeColor=none;fillColor=none;align=left;verticalAlign=middle;spacingLeft=4;spacingRight=4;overflow=hidden;points=[[0,0.5],[1,0.5]];portConstraint=eastwest;rotatable=0;whiteSpace=wrap;html=1;" vertex="1" parent="5YTVY3-jpFA6XS3-Fvsi-54">
          <mxGeometry y="90" width="140" height="30" as="geometry" />
        </mxCell>
        <mxCell id="5YTVY3-jpFA6XS3-Fvsi-58" style="edgeStyle=orthogonalEdgeStyle;rounded=0;orthogonalLoop=1;jettySize=auto;html=1;" edge="1" parent="1" source="5YTVY3-jpFA6XS3-Fvsi-60" target="5YTVY3-jpFA6XS3-Fvsi-71">
          <mxGeometry relative="1" as="geometry" />
        </mxCell>
        <mxCell id="5YTVY3-jpFA6XS3-Fvsi-59" value="&lt;div&gt;1..1&lt;/div&gt;" style="edgeLabel;html=1;align=center;verticalAlign=middle;resizable=0;points=[];" vertex="1" connectable="0" parent="5YTVY3-jpFA6XS3-Fvsi-58">
          <mxGeometry x="0.5429" y="-1" relative="1" as="geometry">
            <mxPoint as="offset" />
          </mxGeometry>
        </mxCell>
        <mxCell id="5YTVY3-jpFA6XS3-Fvsi-60" value="Article" style="swimlane;fontStyle=0;childLayout=stackLayout;horizontal=1;startSize=30;horizontalStack=0;resizeParent=1;resizeParentMax=0;resizeLast=0;collapsible=1;marginBottom=0;whiteSpace=wrap;html=1;" vertex="1" parent="1">
          <mxGeometry x="195" y="1330" width="140" height="120" as="geometry" />
        </mxCell>
        <mxCell id="5YTVY3-jpFA6XS3-Fvsi-61" value="article_id" style="text;strokeColor=none;fillColor=none;align=left;verticalAlign=middle;spacingLeft=4;spacingRight=4;overflow=hidden;points=[[0,0.5],[1,0.5]];portConstraint=eastwest;rotatable=0;whiteSpace=wrap;html=1;" vertex="1" parent="5YTVY3-jpFA6XS3-Fvsi-60">
          <mxGeometry y="30" width="140" height="30" as="geometry" />
        </mxCell>
        <mxCell id="5YTVY3-jpFA6XS3-Fvsi-62" value="titre" style="text;strokeColor=none;fillColor=none;align=left;verticalAlign=middle;spacingLeft=4;spacingRight=4;overflow=hidden;points=[[0,0.5],[1,0.5]];portConstraint=eastwest;rotatable=0;whiteSpace=wrap;html=1;" vertex="1" parent="5YTVY3-jpFA6XS3-Fvsi-60">
          <mxGeometry y="60" width="140" height="30" as="geometry" />
        </mxCell>
        <mxCell id="5YTVY3-jpFA6XS3-Fvsi-63" value="corps" style="text;strokeColor=none;fillColor=none;align=left;verticalAlign=middle;spacingLeft=4;spacingRight=4;overflow=hidden;points=[[0,0.5],[1,0.5]];portConstraint=eastwest;rotatable=0;whiteSpace=wrap;html=1;" vertex="1" parent="5YTVY3-jpFA6XS3-Fvsi-60">
          <mxGeometry y="90" width="140" height="30" as="geometry" />
        </mxCell>
        <mxCell id="5YTVY3-jpFA6XS3-Fvsi-64" value="&lt;div&gt;&amp;lt;&amp;lt;Ã©numÃ©ration&amp;gt;&amp;gt;&lt;/div&gt;&lt;div&gt;Statut&lt;br&gt;&lt;/div&gt;" style="swimlane;fontStyle=0;childLayout=stackLayout;horizontal=1;startSize=30;horizontalStack=0;resizeParent=1;resizeParentMax=0;resizeLast=0;collapsible=1;marginBottom=0;whiteSpace=wrap;html=1;" vertex="1" parent="1">
          <mxGeometry x="515" y="1320" width="140" height="120" as="geometry" />
        </mxCell>
        <mxCell id="5YTVY3-jpFA6XS3-Fvsi-65" value="&lt;div&gt;BROUILLON&lt;/div&gt;" style="text;strokeColor=none;fillColor=none;align=left;verticalAlign=middle;spacingLeft=4;spacingRight=4;overflow=hidden;points=[[0,0.5],[1,0.5]];portConstraint=eastwest;rotatable=0;whiteSpace=wrap;html=1;" vertex="1" parent="5YTVY3-jpFA6XS3-Fvsi-64">
          <mxGeometry y="30" width="140" height="30" as="geometry" />
        </mxCell>
        <mxCell id="5YTVY3-jpFA6XS3-Fvsi-66" value="PUBLIÃ‰" style="text;strokeColor=none;fillColor=none;align=left;verticalAlign=middle;spacingLeft=4;spacingRight=4;overflow=hidden;points=[[0,0.5],[1,0.5]];portConstraint=eastwest;rotatable=0;whiteSpace=wrap;html=1;" vertex="1" parent="5YTVY3-jpFA6XS3-Fvsi-64">
          <mxGeometry y="60" width="140" height="30" as="geometry" />
        </mxCell>
        <mxCell id="5YTVY3-jpFA6XS3-Fvsi-67" value="EN ATTENTE" style="text;strokeColor=none;fillColor=none;align=left;verticalAlign=middle;spacingLeft=4;spacingRight=4;overflow=hidden;points=[[0,0.5],[1,0.5]];portConstraint=eastwest;rotatable=0;whiteSpace=wrap;html=1;" vertex="1" parent="5YTVY3-jpFA6XS3-Fvsi-64">
          <mxGeometry y="90" width="140" height="30" as="geometry" />
        </mxCell>
        <mxCell id="5YTVY3-jpFA6XS3-Fvsi-68" value="" style="endArrow=classic;html=1;rounded=0;exitX=1;exitY=0.5;exitDx=0;exitDy=0;" edge="1" parent="1">
          <mxGeometry width="50" height="50" relative="1" as="geometry">
            <mxPoint x="334" y="1360" as="sourcePoint" />
            <mxPoint x="514" y="1374.4" as="targetPoint" />
          </mxGeometry>
        </mxCell>
        <mxCell id="5YTVY3-jpFA6XS3-Fvsi-69" value="&lt;div&gt;0..1&lt;/div&gt;" style="edgeLabel;html=1;align=center;verticalAlign=middle;resizable=0;points=[];" vertex="1" connectable="0" parent="5YTVY3-jpFA6XS3-Fvsi-68">
          <mxGeometry x="0.4127" y="-2" relative="1" as="geometry">
            <mxPoint x="19" as="offset" />
          </mxGeometry>
        </mxCell>
        <mxCell id="5YTVY3-jpFA6XS3-Fvsi-70" value="&lt;div&gt;&lt;font style=&quot;font-size: 36px;&quot;&gt;Exercice 3&lt;br&gt;&lt;/font&gt;&lt;/div&gt;" style="text;html=1;align=center;verticalAlign=middle;resizable=0;points=[];autosize=1;strokeColor=none;fillColor=none;" vertex="1" parent="1">
          <mxGeometry x="325" y="1210" width="190" height="60" as="geometry" />
        </mxCell>
        <mxCell id="5YTVY3-jpFA6XS3-Fvsi-71" value="&lt;div&gt;Autheur&lt;/div&gt;" style="swimlane;fontStyle=0;childLayout=stackLayout;horizontal=1;startSize=30;horizontalStack=0;resizeParent=1;resizeParentMax=0;resizeLast=0;collapsible=1;marginBottom=0;whiteSpace=wrap;html=1;" vertex="1" parent="1">
          <mxGeometry x="190" y="1490" width="140" height="60" as="geometry" />
        </mxCell>
        <mxCell id="5YTVY3-jpFA6XS3-Fvsi-72" value="nom" style="text;strokeColor=none;fillColor=none;align=left;verticalAlign=middle;spacingLeft=4;spacingRight=4;overflow=hidden;points=[[0,0.5],[1,0.5]];portConstraint=eastwest;rotatable=0;whiteSpace=wrap;html=1;" vertex="1" parent="5YTVY3-jpFA6XS3-Fvsi-71">
          <mxGeometry y="30" width="140" height="30" as="geometry" />
        </mxCell>
        <mxCell id="5YTVY3-jpFA6XS3-Fvsi-84" value="&lt;div&gt;Blog&lt;/div&gt;" style="shape=folder;fontStyle=1;tabWidth=110;tabHeight=30;tabPosition=left;html=1;boundedLbl=1;labelInHeader=1;container=1;collapsible=0;whiteSpace=wrap;" vertex="1" parent="1">
          <mxGeometry x="100" y="1610" width="690" height="310" as="geometry" />
        </mxCell>
        <mxCell id="5YTVY3-jpFA6XS3-Fvsi-85" value="" style="html=1;strokeColor=none;resizeWidth=1;resizeHeight=1;fillColor=none;part=1;connectable=0;allowArrows=0;deletable=0;whiteSpace=wrap;" vertex="1" parent="5YTVY3-jpFA6XS3-Fvsi-84">
          <mxGeometry width="690" height="217" relative="1" as="geometry">
            <mxPoint y="30" as="offset" />
          </mxGeometry>
        </mxCell>
        <mxCell id="5YTVY3-jpFA6XS3-Fvsi-100" value="&lt;div&gt;&lt;font style=&quot;font-size: 36px;&quot;&gt;Exercice 4&lt;br&gt;&lt;/font&gt;&lt;/div&gt;" style="text;html=1;align=center;verticalAlign=middle;resizable=0;points=[];autosize=1;strokeColor=none;fillColor=none;" vertex="1" parent="5YTVY3-jpFA6XS3-Fvsi-84">
          <mxGeometry x="250" y="-30" width="190" height="60" as="geometry" />
        </mxCell>
        <mxCell id="5YTVY3-jpFA6XS3-Fvsi-86" style="edgeStyle=orthogonalEdgeStyle;rounded=0;orthogonalLoop=1;jettySize=auto;html=1;" edge="1" parent="1" source="5YTVY3-jpFA6XS3-Fvsi-88" target="5YTVY3-jpFA6XS3-Fvsi-98">
          <mxGeometry relative="1" as="geometry" />
        </mxCell>
        <mxCell id="5YTVY3-jpFA6XS3-Fvsi-87" value="&lt;div&gt;1..N&lt;/div&gt;" style="edgeLabel;html=1;align=center;verticalAlign=middle;resizable=0;points=[];" vertex="1" connectable="0" parent="5YTVY3-jpFA6XS3-Fvsi-86">
          <mxGeometry x="0.5429" y="-1" relative="1" as="geometry">
            <mxPoint as="offset" />
          </mxGeometry>
        </mxCell>
        <mxCell id="5YTVY3-jpFA6XS3-Fvsi-88" value="Article" style="swimlane;fontStyle=0;childLayout=stackLayout;horizontal=1;startSize=30;horizontalStack=0;resizeParent=1;resizeParentMax=0;resizeLast=0;collapsible=1;marginBottom=0;whiteSpace=wrap;html=1;" vertex="1" parent="1">
          <mxGeometry x="195" y="1680" width="140" height="120" as="geometry" />
        </mxCell>
        <mxCell id="5YTVY3-jpFA6XS3-Fvsi-89" value="article_id" style="text;strokeColor=none;fillColor=none;align=left;verticalAlign=middle;spacingLeft=4;spacingRight=4;overflow=hidden;points=[[0,0.5],[1,0.5]];portConstraint=eastwest;rotatable=0;whiteSpace=wrap;html=1;" vertex="1" parent="5YTVY3-jpFA6XS3-Fvsi-88">
          <mxGeometry y="30" width="140" height="30" as="geometry" />
        </mxCell>
        <mxCell id="5YTVY3-jpFA6XS3-Fvsi-90" value="titre" style="text;strokeColor=none;fillColor=none;align=left;verticalAlign=middle;spacingLeft=4;spacingRight=4;overflow=hidden;points=[[0,0.5],[1,0.5]];portConstraint=eastwest;rotatable=0;whiteSpace=wrap;html=1;" vertex="1" parent="5YTVY3-jpFA6XS3-Fvsi-88">
          <mxGeometry y="60" width="140" height="30" as="geometry" />
        </mxCell>
        <mxCell id="5YTVY3-jpFA6XS3-Fvsi-91" value="corps" style="text;strokeColor=none;fillColor=none;align=left;verticalAlign=middle;spacingLeft=4;spacingRight=4;overflow=hidden;points=[[0,0.5],[1,0.5]];portConstraint=eastwest;rotatable=0;whiteSpace=wrap;html=1;" vertex="1" parent="5YTVY3-jpFA6XS3-Fvsi-88">
          <mxGeometry y="90" width="140" height="30" as="geometry" />
        </mxCell>
        <mxCell id="5YTVY3-jpFA6XS3-Fvsi-92" value="&lt;div&gt;&amp;lt;&amp;lt;Ã©numÃ©ration&amp;gt;&amp;gt;&lt;/div&gt;&lt;div&gt;Statut&lt;br&gt;&lt;/div&gt;" style="swimlane;fontStyle=0;childLayout=stackLayout;horizontal=1;startSize=30;horizontalStack=0;resizeParent=1;resizeParentMax=0;resizeLast=0;collapsible=1;marginBottom=0;whiteSpace=wrap;html=1;" vertex="1" parent="1">
          <mxGeometry x="515" y="1670" width="140" height="120" as="geometry" />
        </mxCell>
        <mxCell id="5YTVY3-jpFA6XS3-Fvsi-93" value="&lt;div&gt;BROUILLON&lt;/div&gt;" style="text;strokeColor=none;fillColor=none;align=left;verticalAlign=middle;spacingLeft=4;spacingRight=4;overflow=hidden;points=[[0,0.5],[1,0.5]];portConstraint=eastwest;rotatable=0;whiteSpace=wrap;html=1;" vertex="1" parent="5YTVY3-jpFA6XS3-Fvsi-92">
          <mxGeometry y="30" width="140" height="30" as="geometry" />
        </mxCell>
        <mxCell id="5YTVY3-jpFA6XS3-Fvsi-94" value="PUBLIÃ‰" style="text;strokeColor=none;fillColor=none;align=left;verticalAlign=middle;spacingLeft=4;spacingRight=4;overflow=hidden;points=[[0,0.5],[1,0.5]];portConstraint=eastwest;rotatable=0;whiteSpace=wrap;html=1;" vertex="1" parent="5YTVY3-jpFA6XS3-Fvsi-92">
          <mxGeometry y="60" width="140" height="30" as="geometry" />
        </mxCell>
        <mxCell id="5YTVY3-jpFA6XS3-Fvsi-95" value="EN ATTENTE" style="text;strokeColor=none;fillColor=none;align=left;verticalAlign=middle;spacingLeft=4;spacingRight=4;overflow=hidden;points=[[0,0.5],[1,0.5]];portConstraint=eastwest;rotatable=0;whiteSpace=wrap;html=1;" vertex="1" parent="5YTVY3-jpFA6XS3-Fvsi-92">
          <mxGeometry y="90" width="140" height="30" as="geometry" />
        </mxCell>
        <mxCell id="5YTVY3-jpFA6XS3-Fvsi-96" value="" style="endArrow=classic;html=1;rounded=0;exitX=1;exitY=0.5;exitDx=0;exitDy=0;" edge="1" parent="1">
          <mxGeometry width="50" height="50" relative="1" as="geometry">
            <mxPoint x="334" y="1710" as="sourcePoint" />
            <mxPoint x="514" y="1724.4" as="targetPoint" />
          </mxGeometry>
        </mxCell>
        <mxCell id="5YTVY3-jpFA6XS3-Fvsi-97" value="&lt;div&gt;0..1&lt;/div&gt;" style="edgeLabel;html=1;align=center;verticalAlign=middle;resizable=0;points=[];" vertex="1" connectable="0" parent="5YTVY3-jpFA6XS3-Fvsi-96">
          <mxGeometry x="0.4127" y="-2" relative="1" as="geometry">
            <mxPoint x="19" as="offset" />
          </mxGeometry>
        </mxCell>
        <mxCell id="5YTVY3-jpFA6XS3-Fvsi-98" value="&lt;div&gt;Autheur&lt;/div&gt;" style="swimlane;fontStyle=0;childLayout=stackLayout;horizontal=1;startSize=30;horizontalStack=0;resizeParent=1;resizeParentMax=0;resizeLast=0;collapsible=1;marginBottom=0;whiteSpace=wrap;html=1;" vertex="1" parent="1">
          <mxGeometry x="190" y="1840" width="140" height="60" as="geometry" />
        </mxCell>
        <mxCell id="5YTVY3-jpFA6XS3-Fvsi-99" value="nom" style="text;strokeColor=none;fillColor=none;align=left;verticalAlign=middle;spacingLeft=4;spacingRight=4;overflow=hidden;points=[[0,0.5],[1,0.5]];portConstraint=eastwest;rotatable=0;whiteSpace=wrap;html=1;" vertex="1" parent="5YTVY3-jpFA6XS3-Fvsi-98">
          <mxGeometry y="30" width="140" height="30" as="geometry" />
        </mxCell>
        <mxCell id="5YTVY3-jpFA6XS3-Fvsi-111" value="Dev" style="swimlane;fontStyle=0;childLayout=stackLayout;horizontal=1;startSize=30;horizontalStack=0;resizeParent=1;resizeParentMax=0;resizeLast=0;collapsible=1;marginBottom=0;whiteSpace=wrap;html=1;" vertex="1" parent="1">
          <mxGeometry x="575" y="2140" width="140" height="120" as="geometry" />
        </mxCell>
        <mxCell id="5YTVY3-jpFA6XS3-Fvsi-112" value="dev_id" style="text;strokeColor=none;fillColor=none;align=left;verticalAlign=middle;spacingLeft=4;spacingRight=4;overflow=hidden;points=[[0,0.5],[1,0.5]];portConstraint=eastwest;rotatable=0;whiteSpace=wrap;html=1;" vertex="1" parent="5YTVY3-jpFA6XS3-Fvsi-111">
          <mxGeometry y="30" width="140" height="30" as="geometry" />
        </mxCell>
        <mxCell id="5YTVY3-jpFA6XS3-Fvsi-113" value="nom" style="text;strokeColor=none;fillColor=none;align=left;verticalAlign=middle;spacingLeft=4;spacingRight=4;overflow=hidden;points=[[0,0.5],[1,0.5]];portConstraint=eastwest;rotatable=0;whiteSpace=wrap;html=1;" vertex="1" parent="5YTVY3-jpFA6XS3-Fvsi-111">
          <mxGeometry y="60" width="140" height="30" as="geometry" />
        </mxCell>
        <mxCell id="5YTVY3-jpFA6XS3-Fvsi-114" value="prÃ©nom" style="text;strokeColor=none;fillColor=none;align=left;verticalAlign=middle;spacingLeft=4;spacingRight=4;overflow=hidden;points=[[0,0.5],[1,0.5]];portConstraint=eastwest;rotatable=0;whiteSpace=wrap;html=1;" vertex="1" parent="5YTVY3-jpFA6XS3-Fvsi-111">
          <mxGeometry y="90" width="140" height="30" as="geometry" />
        </mxCell>
        <mxCell id="5YTVY3-jpFA6XS3-Fvsi-109" style="edgeStyle=orthogonalEdgeStyle;rounded=0;orthogonalLoop=1;jettySize=auto;html=1;" edge="1" parent="1" source="5YTVY3-jpFA6XS3-Fvsi-111" target="5YTVY3-jpFA6XS3-Fvsi-121">
          <mxGeometry relative="1" as="geometry" />
        </mxCell>
        <mxCell id="5YTVY3-jpFA6XS3-Fvsi-110" value="&lt;div&gt;1..N&lt;/div&gt;" style="edgeLabel;html=1;align=center;verticalAlign=middle;resizable=0;points=[];" vertex="1" connectable="0" parent="5YTVY3-jpFA6XS3-Fvsi-109">
          <mxGeometry x="0.5429" y="-1" relative="1" as="geometry">
            <mxPoint as="offset" />
          </mxGeometry>
        </mxCell>
        <mxCell id="5YTVY3-jpFA6XS3-Fvsi-125" value="1..N" style="edgeLabel;html=1;align=center;verticalAlign=middle;resizable=0;points=[];" vertex="1" connectable="0" parent="5YTVY3-jpFA6XS3-Fvsi-109">
          <mxGeometry x="-0.7671" y="-1" relative="1" as="geometry">
            <mxPoint as="offset" />
          </mxGeometry>
        </mxCell>
        <mxCell id="5YTVY3-jpFA6XS3-Fvsi-126" value="&lt;div&gt;+Date de dÃ©but&lt;/div&gt;&lt;div&gt;+Date de fin&lt;br&gt;&lt;/div&gt;" style="edgeLabel;html=1;align=center;verticalAlign=middle;resizable=0;points=[];" vertex="1" connectable="0" parent="5YTVY3-jpFA6XS3-Fvsi-109">
          <mxGeometry x="-0.0091" y="1" relative="1" as="geometry">
            <mxPoint y="-5" as="offset" />
          </mxGeometry>
        </mxCell>
        <mxCell id="5YTVY3-jpFA6XS3-Fvsi-121" value="FonctionnalitÃ©" style="swimlane;fontStyle=0;childLayout=stackLayout;horizontal=1;startSize=30;horizontalStack=0;resizeParent=1;resizeParentMax=0;resizeLast=0;collapsible=1;marginBottom=0;whiteSpace=wrap;html=1;" vertex="1" parent="1">
          <mxGeometry x="155" y="2130" width="140" height="120" as="geometry" />
        </mxCell>
        <mxCell id="5YTVY3-jpFA6XS3-Fvsi-122" value="func_id" style="text;strokeColor=none;fillColor=none;align=left;verticalAlign=middle;spacingLeft=4;spacingRight=4;overflow=hidden;points=[[0,0.5],[1,0.5]];portConstraint=eastwest;rotatable=0;whiteSpace=wrap;html=1;" vertex="1" parent="5YTVY3-jpFA6XS3-Fvsi-121">
          <mxGeometry y="30" width="140" height="30" as="geometry" />
        </mxCell>
        <mxCell id="5YTVY3-jpFA6XS3-Fvsi-123" value="titre" style="text;strokeColor=none;fillColor=none;align=left;verticalAlign=middle;spacingLeft=4;spacingRight=4;overflow=hidden;points=[[0,0.5],[1,0.5]];portConstraint=eastwest;rotatable=0;whiteSpace=wrap;html=1;" vertex="1" parent="5YTVY3-jpFA6XS3-Fvsi-121">
          <mxGeometry y="60" width="140" height="30" as="geometry" />
        </mxCell>
        <mxCell id="5YTVY3-jpFA6XS3-Fvsi-124" value="description" style="text;strokeColor=none;fillColor=none;align=left;verticalAlign=middle;spacingLeft=4;spacingRight=4;overflow=hidden;points=[[0,0.5],[1,0.5]];portConstraint=eastwest;rotatable=0;whiteSpace=wrap;html=1;" vertex="1" parent="5YTVY3-jpFA6XS3-Fvsi-121">
          <mxGeometry y="90" width="140" height="30" as="geometry" />
        </mxCell>
        <mxCell id="5YTVY3-jpFA6XS3-Fvsi-108" value="&lt;div&gt;&lt;font style=&quot;font-size: 36px;&quot;&gt;Exercice 5&lt;br&gt;&lt;/font&gt;&lt;/div&gt;" style="text;html=1;align=center;verticalAlign=middle;resizable=0;points=[];autosize=1;strokeColor=none;fillColor=none;" vertex="1" parent="1">
          <mxGeometry x="340" y="2039.9970967741936" width="190" height="60" as="geometry" />
        </mxCell>
        <mxCell id="5YTVY3-jpFA6XS3-Fvsi-127" value="Module" style="swimlane;fontStyle=0;childLayout=stackLayout;horizontal=1;startSize=30;horizontalStack=0;resizeParent=1;resizeParentMax=0;resizeLast=0;collapsible=1;marginBottom=0;whiteSpace=wrap;html=1;" vertex="1" parent="1">
          <mxGeometry x="590" y="2435" width="140" height="90" as="geometry" />
        </mxCell>
        <mxCell id="5YTVY3-jpFA6XS3-Fvsi-128" value="code_alpha" style="text;strokeColor=none;fillColor=none;align=left;verticalAlign=middle;spacingLeft=4;spacingRight=4;overflow=hidden;points=[[0,0.5],[1,0.5]];portConstraint=eastwest;rotatable=0;whiteSpace=wrap;html=1;" vertex="1" parent="5YTVY3-jpFA6XS3-Fvsi-127">
          <mxGeometry y="30" width="140" height="30" as="geometry" />
        </mxCell>
        <mxCell id="5YTVY3-jpFA6XS3-Fvsi-129" value="nom" style="text;strokeColor=none;fillColor=none;align=left;verticalAlign=middle;spacingLeft=4;spacingRight=4;overflow=hidden;points=[[0,0.5],[1,0.5]];portConstraint=eastwest;rotatable=0;whiteSpace=wrap;html=1;" vertex="1" parent="5YTVY3-jpFA6XS3-Fvsi-127">
          <mxGeometry y="60" width="140" height="30" as="geometry" />
        </mxCell>
        <mxCell id="5YTVY3-jpFA6XS3-Fvsi-131" style="edgeStyle=orthogonalEdgeStyle;rounded=0;orthogonalLoop=1;jettySize=auto;html=1;" edge="1" parent="1" source="5YTVY3-jpFA6XS3-Fvsi-127" target="5YTVY3-jpFA6XS3-Fvsi-135">
          <mxGeometry relative="1" as="geometry" />
        </mxCell>
        <mxCell id="5YTVY3-jpFA6XS3-Fvsi-132" value="&lt;div&gt;1..N&lt;/div&gt;" style="edgeLabel;html=1;align=center;verticalAlign=middle;resizable=0;points=[];" vertex="1" connectable="0" parent="5YTVY3-jpFA6XS3-Fvsi-131">
          <mxGeometry x="0.5429" y="-1" relative="1" as="geometry">
            <mxPoint as="offset" />
          </mxGeometry>
        </mxCell>
        <mxCell id="5YTVY3-jpFA6XS3-Fvsi-133" value="1..N" style="edgeLabel;html=1;align=center;verticalAlign=middle;resizable=0;points=[];" vertex="1" connectable="0" parent="5YTVY3-jpFA6XS3-Fvsi-131">
          <mxGeometry x="-0.7671" y="-1" relative="1" as="geometry">
            <mxPoint as="offset" />
          </mxGeometry>
        </mxCell>
        <mxCell id="5YTVY3-jpFA6XS3-Fvsi-135" value="Ã‰tudiant" style="swimlane;fontStyle=0;childLayout=stackLayout;horizontal=1;startSize=30;horizontalStack=0;resizeParent=1;resizeParentMax=0;resizeLast=0;collapsible=1;marginBottom=0;whiteSpace=wrap;html=1;" vertex="1" parent="1">
          <mxGeometry x="165" y="2420" width="140" height="120" as="geometry" />
        </mxCell>
        <mxCell id="5YTVY3-jpFA6XS3-Fvsi-136" value="num_etudiant" style="text;strokeColor=none;fillColor=none;align=left;verticalAlign=middle;spacingLeft=4;spacingRight=4;overflow=hidden;points=[[0,0.5],[1,0.5]];portConstraint=eastwest;rotatable=0;whiteSpace=wrap;html=1;" vertex="1" parent="5YTVY3-jpFA6XS3-Fvsi-135">
          <mxGeometry y="30" width="140" height="30" as="geometry" />
        </mxCell>
        <mxCell id="5YTVY3-jpFA6XS3-Fvsi-137" value="nom" style="text;strokeColor=none;fillColor=none;align=left;verticalAlign=middle;spacingLeft=4;spacingRight=4;overflow=hidden;points=[[0,0.5],[1,0.5]];portConstraint=eastwest;rotatable=0;whiteSpace=wrap;html=1;" vertex="1" parent="5YTVY3-jpFA6XS3-Fvsi-135">
          <mxGeometry y="60" width="140" height="30" as="geometry" />
        </mxCell>
        <mxCell id="5YTVY3-jpFA6XS3-Fvsi-138" value="prÃ©nom" style="text;strokeColor=none;fillColor=none;align=left;verticalAlign=middle;spacingLeft=4;spacingRight=4;overflow=hidden;points=[[0,0.5],[1,0.5]];portConstraint=eastwest;rotatable=0;whiteSpace=wrap;html=1;" vertex="1" parent="5YTVY3-jpFA6XS3-Fvsi-135">
          <mxGeometry y="90" width="140" height="30" as="geometry" />
        </mxCell>
        <mxCell id="5YTVY3-jpFA6XS3-Fvsi-139" value="&lt;div&gt;&lt;font style=&quot;font-size: 36px;&quot;&gt;Exercice 6&lt;br&gt;&lt;/font&gt;&lt;/div&gt;" style="text;html=1;align=center;verticalAlign=middle;resizable=0;points=[];autosize=1;strokeColor=none;fillColor=none;" vertex="1" parent="1">
          <mxGeometry x="350" y="2329.997096774194" width="190" height="60" as="geometry" />
        </mxCell>
        <mxCell id="5YTVY3-jpFA6XS3-Fvsi-143" value="RÃ©gion" style="swimlane;fontStyle=0;childLayout=stackLayout;horizontal=1;startSize=30;horizontalStack=0;resizeParent=1;resizeParentMax=0;resizeLast=0;collapsible=1;marginBottom=0;whiteSpace=wrap;html=1;" vertex="1" parent="1">
          <mxGeometry x="575" y="2830" width="140" height="120" as="geometry" />
        </mxCell>
        <mxCell id="5YTVY3-jpFA6XS3-Fvsi-144" value="id_rÃ©gion" style="text;strokeColor=none;fillColor=none;align=left;verticalAlign=middle;spacingLeft=4;spacingRight=4;overflow=hidden;points=[[0,0.5],[1,0.5]];portConstraint=eastwest;rotatable=0;whiteSpace=wrap;html=1;" vertex="1" parent="5YTVY3-jpFA6XS3-Fvsi-143">
          <mxGeometry y="30" width="140" height="30" as="geometry" />
        </mxCell>
        <mxCell id="5YTVY3-jpFA6XS3-Fvsi-155" value="nom" style="text;strokeColor=none;fillColor=none;align=left;verticalAlign=middle;spacingLeft=4;spacingRight=4;overflow=hidden;points=[[0,0.5],[1,0.5]];portConstraint=eastwest;rotatable=0;whiteSpace=wrap;html=1;" vertex="1" parent="5YTVY3-jpFA6XS3-Fvsi-143">
          <mxGeometry y="60" width="140" height="30" as="geometry" />
        </mxCell>
        <mxCell id="5YTVY3-jpFA6XS3-Fvsi-145" value="langue" style="text;strokeColor=none;fillColor=none;align=left;verticalAlign=middle;spacingLeft=4;spacingRight=4;overflow=hidden;points=[[0,0.5],[1,0.5]];portConstraint=eastwest;rotatable=0;whiteSpace=wrap;html=1;" vertex="1" parent="5YTVY3-jpFA6XS3-Fvsi-143">
          <mxGeometry y="90" width="140" height="30" as="geometry" />
        </mxCell>
        <mxCell id="5YTVY3-jpFA6XS3-Fvsi-146" style="edgeStyle=orthogonalEdgeStyle;rounded=0;orthogonalLoop=1;jettySize=auto;html=1;" edge="1" parent="1" source="5YTVY3-jpFA6XS3-Fvsi-143" target="5YTVY3-jpFA6XS3-Fvsi-150">
          <mxGeometry relative="1" as="geometry" />
        </mxCell>
        <mxCell id="5YTVY3-jpFA6XS3-Fvsi-147" value="&lt;div&gt;1..N&lt;/div&gt;" style="edgeLabel;html=1;align=center;verticalAlign=middle;resizable=0;points=[];" vertex="1" connectable="0" parent="5YTVY3-jpFA6XS3-Fvsi-146">
          <mxGeometry x="0.5429" y="-1" relative="1" as="geometry">
            <mxPoint as="offset" />
          </mxGeometry>
        </mxCell>
        <mxCell id="5YTVY3-jpFA6XS3-Fvsi-148" value="1..1" style="edgeLabel;html=1;align=center;verticalAlign=middle;resizable=0;points=[];" vertex="1" connectable="0" parent="5YTVY3-jpFA6XS3-Fvsi-146">
          <mxGeometry x="-0.7671" y="-1" relative="1" as="geometry">
            <mxPoint as="offset" />
          </mxGeometry>
        </mxCell>
        <mxCell id="5YTVY3-jpFA6XS3-Fvsi-150" value="Pays" style="swimlane;fontStyle=0;childLayout=stackLayout;horizontal=1;startSize=30;horizontalStack=0;resizeParent=1;resizeParentMax=0;resizeLast=0;collapsible=1;marginBottom=0;whiteSpace=wrap;html=1;" vertex="1" parent="1">
          <mxGeometry x="155" y="2830" width="140" height="120" as="geometry" />
        </mxCell>
        <mxCell id="5YTVY3-jpFA6XS3-Fvsi-151" value="id_pays" style="text;strokeColor=none;fillColor=none;align=left;verticalAlign=middle;spacingLeft=4;spacingRight=4;overflow=hidden;points=[[0,0.5],[1,0.5]];portConstraint=eastwest;rotatable=0;whiteSpace=wrap;html=1;" vertex="1" parent="5YTVY3-jpFA6XS3-Fvsi-150">
          <mxGeometry y="30" width="140" height="30" as="geometry" />
        </mxCell>
        <mxCell id="5YTVY3-jpFA6XS3-Fvsi-152" value="nom" style="text;strokeColor=none;fillColor=none;align=left;verticalAlign=middle;spacingLeft=4;spacingRight=4;overflow=hidden;points=[[0,0.5],[1,0.5]];portConstraint=eastwest;rotatable=0;whiteSpace=wrap;html=1;" vertex="1" parent="5YTVY3-jpFA6XS3-Fvsi-150">
          <mxGeometry y="60" width="140" height="30" as="geometry" />
        </mxCell>
        <mxCell id="5YTVY3-jpFA6XS3-Fvsi-153" value="monnaie" style="text;strokeColor=none;fillColor=none;align=left;verticalAlign=middle;spacingLeft=4;spacingRight=4;overflow=hidden;points=[[0,0.5],[1,0.5]];portConstraint=eastwest;rotatable=0;whiteSpace=wrap;html=1;" vertex="1" parent="5YTVY3-jpFA6XS3-Fvsi-150">
          <mxGeometry y="90" width="140" height="30" as="geometry" />
        </mxCell>
        <mxCell id="5YTVY3-jpFA6XS3-Fvsi-154" value="&lt;div&gt;&lt;font style=&quot;font-size: 36px;&quot;&gt;Exercice 7&lt;br&gt;&lt;/font&gt;&lt;/div&gt;" style="text;html=1;align=center;verticalAlign=middle;resizable=0;points=[];autosize=1;strokeColor=none;fillColor=none;" vertex="1" parent="1">
          <mxGeometry x="340" y="2739.997096774194" width="190" height="60" as="geometry" />
        </mxCell>
        <mxCell id="5YTVY3-jpFA6XS3-Fvsi-156" value="Appartements" style="swimlane;fontStyle=0;childLayout=stackLayout;horizontal=1;startSize=30;horizontalStack=0;resizeParent=1;resizeParentMax=0;resizeLast=0;collapsible=1;marginBottom=0;whiteSpace=wrap;html=1;" vertex="1" parent="1">
          <mxGeometry x="575" y="3070" width="140" height="120" as="geometry" />
        </mxCell>
        <mxCell id="5YTVY3-jpFA6XS3-Fvsi-157" value="id_rÃ©gion" style="text;strokeColor=none;fillColor=none;align=left;verticalAlign=middle;spacingLeft=4;spacingRight=4;overflow=hidden;points=[[0,0.5],[1,0.5]];portConstraint=eastwest;rotatable=0;whiteSpace=wrap;html=1;" vertex="1" parent="5YTVY3-jpFA6XS3-Fvsi-156">
          <mxGeometry y="30" width="140" height="30" as="geometry" />
        </mxCell>
        <mxCell id="5YTVY3-jpFA6XS3-Fvsi-158" value="nom" style="text;strokeColor=none;fillColor=none;align=left;verticalAlign=middle;spacingLeft=4;spacingRight=4;overflow=hidden;points=[[0,0.5],[1,0.5]];portConstraint=eastwest;rotatable=0;whiteSpace=wrap;html=1;" vertex="1" parent="5YTVY3-jpFA6XS3-Fvsi-156">
          <mxGeometry y="60" width="140" height="30" as="geometry" />
        </mxCell>
        <mxCell id="5YTVY3-jpFA6XS3-Fvsi-159" value="langue" style="text;strokeColor=none;fillColor=none;align=left;verticalAlign=middle;spacingLeft=4;spacingRight=4;overflow=hidden;points=[[0,0.5],[1,0.5]];portConstraint=eastwest;rotatable=0;whiteSpace=wrap;html=1;" vertex="1" parent="5YTVY3-jpFA6XS3-Fvsi-156">
          <mxGeometry y="90" width="140" height="30" as="geometry" />
        </mxCell>
        <mxCell id="5YTVY3-jpFA6XS3-Fvsi-160" style="edgeStyle=orthogonalEdgeStyle;rounded=0;orthogonalLoop=1;jettySize=auto;html=1;" edge="1" parent="1" source="5YTVY3-jpFA6XS3-Fvsi-156" target="5YTVY3-jpFA6XS3-Fvsi-163">
          <mxGeometry relative="1" as="geometry" />
        </mxCell>
        <mxCell id="5YTVY3-jpFA6XS3-Fvsi-161" value="&lt;div&gt;1..N&lt;/div&gt;" style="edgeLabel;html=1;align=center;verticalAlign=middle;resizable=0;points=[];" vertex="1" connectable="0" parent="5YTVY3-jpFA6XS3-Fvsi-160">
          <mxGeometry x="0.5429" y="-1" relative="1" as="geometry">
            <mxPoint as="offset" />
          </mxGeometry>
        </mxCell>
        <mxCell id="5YTVY3-jpFA6XS3-Fvsi-162" value="1..1" style="edgeLabel;html=1;align=center;verticalAlign=middle;resizable=0;points=[];" vertex="1" connectable="0" parent="5YTVY3-jpFA6XS3-Fvsi-160">
          <mxGeometry x="-0.7671" y="-1" relative="1" as="geometry">
            <mxPoint as="offset" />
          </mxGeometry>
        </mxCell>
        <mxCell id="5YTVY3-jpFA6XS3-Fvsi-163" value="Immeuble" style="swimlane;fontStyle=0;childLayout=stackLayout;horizontal=1;startSize=30;horizontalStack=0;resizeParent=1;resizeParentMax=0;resizeLast=0;collapsible=1;marginBottom=0;whiteSpace=wrap;html=1;" vertex="1" parent="1">
          <mxGeometry x="155" y="3070" width="140" height="120" as="geometry" />
        </mxCell>
        <mxCell id="5YTVY3-jpFA6XS3-Fvsi-164" value="id_immeuble" style="text;strokeColor=none;fillColor=none;align=left;verticalAlign=middle;spacingLeft=4;spacingRight=4;overflow=hidden;points=[[0,0.5],[1,0.5]];portConstraint=eastwest;rotatable=0;whiteSpace=wrap;html=1;" vertex="1" parent="5YTVY3-jpFA6XS3-Fvsi-163">
          <mxGeometry y="30" width="140" height="30" as="geometry" />
        </mxCell>
        <mxCell id="5YTVY3-jpFA6XS3-Fvsi-165" value="nom" style="text;strokeColor=none;fillColor=none;align=left;verticalAlign=middle;spacingLeft=4;spacingRight=4;overflow=hidden;points=[[0,0.5],[1,0.5]];portConstraint=eastwest;rotatable=0;whiteSpace=wrap;html=1;" vertex="1" parent="5YTVY3-jpFA6XS3-Fvsi-163">
          <mxGeometry y="60" width="140" height="30" as="geometry" />
        </mxCell>
        <mxCell id="5YTVY3-jpFA6XS3-Fvsi-166" value="monnaie" style="text;strokeColor=none;fillColor=none;align=left;verticalAlign=middle;spacingLeft=4;spacingRight=4;overflow=hidden;points=[[0,0.5],[1,0.5]];portConstraint=eastwest;rotatable=0;whiteSpace=wrap;html=1;" vertex="1" parent="5YTVY3-jpFA6XS3-Fvsi-163">
          <mxGeometry y="90" width="140" height="30" as="geometry" />
        </mxCell>
        <mxCell id="5YTVY3-jpFA6XS3-Fvsi-167" value="&lt;div&gt;&lt;font style=&quot;font-size: 36px;&quot;&gt;Exercice 8&lt;br&gt;&lt;/font&gt;&lt;/div&gt;" style="text;html=1;align=center;verticalAlign=middle;resizable=0;points=[];autosize=1;strokeColor=none;fillColor=none;" vertex="1" parent="1">
          <mxGeometry x="340" y="2979.997096774194" width="190" height="60" as="geometry" />
        </mxCell>
        <mxCell id="5YTVY3-jpFA6XS3-Fvsi-172" style="edgeStyle=orthogonalEdgeStyle;rounded=0;orthogonalLoop=1;jettySize=auto;html=1;" edge="1" parent="1" source="5YTVY3-jpFA6XS3-Fvsi-168" target="5YTVY3-jpFA6XS3-Fvsi-156">
          <mxGeometry relative="1" as="geometry" />
        </mxCell>
        <mxCell id="5YTVY3-jpFA6XS3-Fvsi-168" value="PropriÃ©taire" style="swimlane;fontStyle=0;childLayout=stackLayout;horizontal=1;startSize=30;horizontalStack=0;resizeParent=1;resizeParentMax=0;resizeLast=0;collapsible=1;marginBottom=0;whiteSpace=wrap;html=1;" vertex="1" parent="1">
          <mxGeometry x="575" y="3270" width="140" height="120" as="geometry" />
        </mxCell>
        <mxCell id="5YTVY3-jpFA6XS3-Fvsi-169" value="id_rÃ©gion" style="text;strokeColor=none;fillColor=none;align=left;verticalAlign=middle;spacingLeft=4;spacingRight=4;overflow=hidden;points=[[0,0.5],[1,0.5]];portConstraint=eastwest;rotatable=0;whiteSpace=wrap;html=1;" vertex="1" parent="5YTVY3-jpFA6XS3-Fvsi-168">
          <mxGeometry y="30" width="140" height="30" as="geometry" />
        </mxCell>
        <mxCell id="5YTVY3-jpFA6XS3-Fvsi-170" value="nom" style="text;strokeColor=none;fillColor=none;align=left;verticalAlign=middle;spacingLeft=4;spacingRight=4;overflow=hidden;points=[[0,0.5],[1,0.5]];portConstraint=eastwest;rotatable=0;whiteSpace=wrap;html=1;" vertex="1" parent="5YTVY3-jpFA6XS3-Fvsi-168">
          <mxGeometry y="60" width="140" height="30" as="geometry" />
        </mxCell>
        <mxCell id="5YTVY3-jpFA6XS3-Fvsi-171" value="langue" style="text;strokeColor=none;fillColor=none;align=left;verticalAlign=middle;spacingLeft=4;spacingRight=4;overflow=hidden;points=[[0,0.5],[1,0.5]];portConstraint=eastwest;rotatable=0;whiteSpace=wrap;html=1;" vertex="1" parent="5YTVY3-jpFA6XS3-Fvsi-168">
          <mxGeometry y="90" width="140" height="30" as="geometry" />
        </mxCell>
        <mxCell id="5YTVY3-jpFA6XS3-Fvsi-173" value="Ã‰valuation" style="swimlane;fontStyle=0;childLayout=stackLayout;horizontal=1;startSize=30;horizontalStack=0;resizeParent=1;resizeParentMax=0;resizeLast=0;collapsible=1;marginBottom=0;whiteSpace=wrap;html=1;" vertex="1" parent="1">
          <mxGeometry x="375" y="2570" width="140" height="60" as="geometry" />
        </mxCell>
        <mxCell id="5YTVY3-jpFA6XS3-Fvsi-174" value="note" style="text;strokeColor=none;fillColor=none;align=left;verticalAlign=middle;spacingLeft=4;spacingRight=4;overflow=hidden;points=[[0,0.5],[1,0.5]];portConstraint=eastwest;rotatable=0;whiteSpace=wrap;html=1;" vertex="1" parent="5YTVY3-jpFA6XS3-Fvsi-173">
          <mxGeometry y="30" width="140" height="30" as="geometry" />
        </mxCell>
        <mxCell id="5YTVY3-jpFA6XS3-Fvsi-177" value="" style="endArrow=none;dashed=1;html=1;dashPattern=1 3;strokeWidth=2;rounded=0;" edge="1" parent="1" target="5YTVY3-jpFA6XS3-Fvsi-173">
          <mxGeometry width="50" height="50" relative="1" as="geometry">
            <mxPoint x="440" y="2480" as="sourcePoint" />
            <mxPoint x="390" y="2630" as="targetPoint" />
          </mxGeometry>
        </mxCell>
      </root>
    </mxGraphModel>
  </diagram>
</mxfile>
